v 2.7500 -0.7500 -0.2500
v -2.7500 -0.7500 -0.2500
v 2.7500 0.7500 -0.2500
vt 1.0000 0.0000
vt 0.0000 0.0000
vt 1.0000 1.0000
vn 0.0000 0.0000 -1.0000
vn 0.0000 0.0000 -1.0000
vn 0.0000 0.0000 -1.0000
f 1/1/1 2/2/2 3/3/3
v -2.7500 0.7500 -0.2500
v 2.7500 0.7500 -0.2500
v -2.7500 -0.7500 -0.2500
vt 0.0000 1.0000
vt 1.0000 1.0000
vt 0.0000 0.0000
vn 0.0000 0.0000 -1.0000
vn 0.0000 0.0000 -1.0000
vn 0.0000 0.0000 -1.0000
f 4/4/4 5/5/5 6/6/6
v -2.7500 0.7500 -0.2500
v -3.0000 1.0000 0.0000
v 2.7500 0.7500 -0.2500
vt 0.0000 1.0000
vt 0.0000 0.0000
vt 1.0000 1.0000
vn 0.0000 0.7071 -0.7071
vn 0.0000 0.7071 -0.7071
vn 0.0000 0.7071 -0.7071
f 7/7/7 8/8/8 9/9/9
v 3.0000 1.0000 0.0000
v 2.7500 0.7500 -0.2500
v -3.0000 1.0000 0.0000
vt 1.0000 0.0000
vt 1.0000 1.0000
vt 0.0000 0.0000
vn 0.0000 0.7071 -0.7071
vn 0.0000 0.7071 -0.7071
vn 0.0000 0.7071 -0.7071
f 10/10/10 11/11/11 12/12/12
v 2.7500 -0.7500 -0.2500
v 3.0000 -1.0000 0.0000
v -2.7500 -0.7500 -0.2500
vt 0.0000 1.0000
vt 0.0000 0.0000
vt 1.0000 1.0000
vn 0.0000 -0.7071 -0.7071
vn 0.0000 -0.7071 -0.7071
vn 0.0000 -0.7071 -0.7071
f 13/13/13 14/14/14 15/15/15
v -3.0000 -1.0000 0.0000
v -2.7500 -0.7500 -0.2500
v 3.0000 -1.0000 0.0000
vt 1.0000 0.0000
vt 1.0000 1.0000
vt 0.0000 0.0000
vn 0.0000 -0.7071 -0.7071
vn 0.0000 -0.7071 -0.7071
vn 0.0000 -0.7071 -0.7071
f 16/16/16 17/17/17 18/18/18
v -2.7500 -0.7500 -0.2500
v -3.0000 -1.0000 0.0000
v -2.7500 0.7500 -0.2500
vt 0.0000 1.0000
vt 0.0000 0.0000
vt 1.0000 1.0000
vn -0.7071 0.0000 -0.7071
vn -0.7071 0.0000 -0.7071
vn -0.7071 0.0000 -0.7071
f 19/19/19 20/20/20 21/21/21
v -3.0000 1.0000 0.0000
v -2.7500 0.7500 -0.2500
v -3.0000 -1.0000 0.0000
vt 1.0000 0.0000
vt 1.0000 1.0000
vt 0.0000 0.0000
vn -0.7071 0.0000 -0.7071
vn -0.7071 0.0000 -0.7071
vn -0.7071 0.0000 -0.7071
f 22/22/22 23/23/23 24/24/24
v 2.7500 0.7500 -0.2500
v 3.0000 1.0000 0.0000
v 2.7500 -0.7500 -0.2500
vt 0.0000 1.0000
vt 0.0000 0.0000
vt 1.0000 1.0000
vn 0.7071 0.0000 -0.7071
vn 0.7071 0.0000 -0.7071
vn 0.7071 0.0000 -0.7071
f 25/25/25 26/26/26 27/27/27
v 3.0000 -1.0000 0.0000
v 2.7500 -0.7500 -0.2500
v 3.0000 1.0000 0.0000
vt 1.0000 0.0000
vt 1.0000 1.0000
vt 0.0000 0.0000
vn 0.7071 0.0000 -0.7071
vn 0.7071 0.0000 -0.7071
vn 0.7071 0.0000 -0.7071
f 28/28/28 29/29/29 30/30/30
